<svg viewBox="333.5 270.331 380 69.338" width="380" height="69.338" xmlns="http://www.w3.org/2000/svg" xmlns:xlink="http://www.w3.org/1999/xlink" preserveAspectRatio="none"><svg width="380" height="30.335" x="333.5" y="309.334" preserveAspectRatio="none" viewBox="1.44 -29.6 375.8 30"><path d="M11.32.4q-2.88 0-5.1-.96-2.22-.96-4.3-3-.48-.4-.48-.96 0-.48.38-.88t.86-.4q.48 0 .88.4 3.12 3.44 7.8 3.44 2.88 0 4.78-1.36 1.9-1.36 1.9-3.56 0-1.72-.94-2.86t-2.46-1.86q-1.52-.72-3.88-1.48-2.56-.76-4.3-1.68-1.74-.92-2.82-2.46-1.08-1.54-1.08-3.9 0-2.12 1.14-3.76 1.14-1.64 3.2-2.58 2.06-.94 4.74-.94 2.44 0 4.58.82t3.42 2.34q.6.68.6 1.16 0 .44-.4.82-.4.38-.88.38-.4 0-.68-.28-1.08-1.28-2.88-2.08-1.8-.8-3.76-.8-2.92 0-4.76 1.3-1.84 1.3-1.84 3.54 0 2.32 1.76 3.56 1.76 1.24 5.04 2.28 2.84.84 4.64 1.72 1.8.88 2.94 2.5t1.14 4.26q0 2.04-1.18 3.7Q18.2-1.52 16.1-.56 14 .4 11.32.4zm33.2-10.64q0 3-1.32 5.44-1.32 2.44-3.64 3.82Q37.24.4 34.4.4q-2.84 0-5.16-1.38-2.32-1.38-3.64-3.82-1.32-2.44-1.32-5.44 0-3 1.32-5.44 1.32-2.44 3.64-3.84 2.32-1.4 5.16-1.4 2.84 0 5.16 1.4 2.32 1.4 3.64 3.84 1.32 2.44 1.32 5.44zm-2.4 0q0-2.4-1-4.32-1-1.92-2.78-3.02-1.78-1.1-3.94-1.1t-3.92 1.1q-1.76 1.1-2.78 3.02-1.02 1.92-1.02 4.32 0 2.36 1.02 4.28 1.02 1.92 2.78 3.02 1.76 1.1 3.92 1.1t3.94-1.08q1.78-1.08 2.78-3 1-1.92 1-4.32zm14.44-17.08q-1.28 0-1.98.84t-.7 2.32v4.12h4.48q.44 0 .78.32t.34.8q0 .48-.34.8-.34.32-.78.32h-4.48v16.6q0 .52-.34.86-.34.34-.86.34t-.86-.34q-.34-.34-.34-.86v-16.6h-2.92q-.48 0-.8-.34-.32-.34-.32-.78 0-.52.32-.82.32-.3.8-.3h2.92v-4.12q0-2.52 1.46-3.9t3.9-1.38q1.12 0 2.08.34t.96 1.1q0 .48-.32.8-.32.32-.72.32-.36 0-.88-.2-.88-.24-1.4-.24zm15.12 9.2h-4v13.4q0 1.52.56 2.06t1.48.54q.24 0 .6-.1t.56-.1q.36 0 .62.3t.26.7q0 .56-.64.94-.64.38-1.52.38-1.08 0-1.92-.2-.84-.2-1.62-1.2-.78-1-.78-3.2v-13.52h-2.92q-.48 0-.82-.32-.34-.32-.34-.8 0-.48.34-.8.34-.32.82-.32h2.92v-4.44q0-.52.34-.86.34-.34.86-.34t.86.34q.34.34.34.86v4.44h4q.44 0 .78.36t.34.8q0 .48-.32.78-.32.3-.8.3zm31.44-2.76q.52 0 .86.32.34.32.34.88 0 .04-.12.52L98.04-.76q-.2.36-.52.58-.32.22-.68.18-.36 0-.64-.2t-.44-.56l-5.24-12.32L85.84-.76q-.16.32-.46.54-.3.22-.62.22-.4.04-.74-.18-.34-.22-.46-.58l-6.32-18.4q-.12-.24-.12-.52 0-.52.36-.86.36-.34.88-.34.36 0 .66.22.3.22.42.58l5.32 15.96 4.76-11.96q.28-.76 1.12-.76.8 0 1.12.76l5 11.88L102-20.08q.24-.8 1.12-.8zm22.56.44q.52 0 .86.36.34.36.34.88v18q0 .52-.34.86-.34.34-.86.34t-.86-.34q-.34-.34-.34-.86v-2.68q-1 1.8-3 3.04T117.12.4q-2.68 0-4.82-1.4t-3.36-3.84q-1.22-2.44-1.22-5.48 0-3.04 1.24-5.46t3.38-3.78q2.14-1.36 4.74-1.36 2.4 0 4.4 1.16 2 1.16 3 3.04v-2.48q0-.52.34-.88t.86-.36zm-8.32 18.6q2.08 0 3.74-1.1 1.66-1.1 2.6-3.04.94-1.94.94-4.34 0-2.32-.94-4.24-.94-1.92-2.6-3.02-1.66-1.1-3.74-1.1t-3.74 1.08q-1.66 1.08-2.6 2.98-.94 1.9-.94 4.3t.92 4.34q.92 1.94 2.58 3.04 1.66 1.1 3.78 1.1zm25.36-19.08q.8 0 1.44.32.64.32.64.96 0 .56-.32.9-.32.34-.76.34-.2 0-.78-.2-.58-.2-1.1-.2-1.48 0-2.94 1.14t-2.4 2.94q-.94 1.8-.94 3.64v9.88q0 .52-.34.86-.34.34-.86.34t-.86-.34q-.34-.34-.34-.86v-17.92q0-.52.34-.86.34-.34.86-.34t.86.34q.34.34.34.86v3.52q.92-2.28 2.78-3.78 1.86-1.5 4.38-1.54zm22.24 9.52q0 .48-.36.82-.36.34-.84.34h-15.12q0 2.4.98 4.3t2.8 3q1.82 1.1 4.3 1.1 1.92 0 3.44-.8t2.44-2.04q.44-.36.84-.36.4 0 .72.32.32.32.32.72 0 .44-.4.84-1.28 1.56-3.22 2.56-1.94 1-4.1 1-3.08 0-5.44-1.32-2.36-1.32-3.68-3.7-1.32-2.38-1.32-5.5 0-3.28 1.3-5.74 1.3-2.46 3.46-3.76 2.16-1.3 4.6-1.3 2.4 0 4.5 1.12t3.42 3.28q1.32 2.16 1.36 5.12zm-9.28-7.2q-2.32 0-4.3 1.6t-2.54 4.6h13.64v-.32q-.2-1.8-1.2-3.14t-2.5-2.04q-1.5-.7-3.1-.7zm58.16-9.48q.56 0 .92.32t.36.88l-.08.52-8.84 25.6q-.12.36-.42.56-.3.2-.66.2-.92 0-1.2-.76L197-17.84 190.08-.76q-.36.76-1.2.76-.36 0-.66-.2-.3-.2-.38-.56L179-26.36q-.12-.24-.12-.48 0-.56.42-.9.42-.34.9-.34.4 0 .72.2.32.2.44.56l7.84 22.88 6.72-16.76q.36-.8 1.12-.76.4-.04.7.18.3.22.46.58l6.68 16.76 7.76-22.88q.32-.76 1.2-.76zM221.8-1.2q0 .52-.34.86-.34.34-.86.34t-.86-.34q-.34-.34-.34-.86v-18.4q0-.52.34-.86.34-.34.86-.34t.86.34q.34.34.34.86v18.4zm-1.2-22.28q-.8 0-1.24-.38-.44-.38-.44-1.1v-.4q0-.72.46-1.1.46-.38 1.26-.38 1.6 0 1.6 1.48v.4q0 .72-.42 1.1-.42.38-1.22.38zm15.44 5.36h-4v13.4q0 1.52.56 2.06t1.48.54q.24 0 .6-.1t.56-.1q.36 0 .62.3t.26.7q0 .56-.64.94-.64.38-1.52.38-1.08 0-1.92-.2-.84-.2-1.62-1.2-.78-1-.78-3.2v-13.52h-2.92q-.48 0-.82-.32-.34-.32-.34-.8 0-.48.34-.8.34-.32.82-.32h2.92v-4.44q0-.52.34-.86.34-.34.86-.34t.86.34q.34.34.34.86v4.44h4q.44 0 .78.36t.34.8q0 .48-.32.78-.32.3-.8.3zm14.88-2.48q3.6 0 5.36 2.26 1.76 2.26 1.76 5.82V-1.2q0 .52-.34.86-.34.34-.86.34t-.86-.34q-.34-.34-.34-.86v-11.32q0-2.6-1.24-4.22-1.24-1.62-3.88-1.62-1.68 0-3.18.8-1.5.8-2.42 2.14-.92 1.34-.92 2.9V-1.2q0 .52-.34.86-.34.34-.86.34t-.86-.34q-.34-.34-.34-.86v-27.2q0-.52.34-.86.34-.34.86-.34t.86.34q.34.34.34.86v11.72q1.08-1.72 3-2.82 1.92-1.1 3.92-1.1zM283.4.4q-2.88 0-5.1-.96-2.22-.96-4.3-3-.48-.4-.48-.96 0-.48.38-.88t.86-.4q.48 0 .88.4 3.12 3.44 7.8 3.44 2.88 0 4.78-1.36 1.9-1.36 1.9-3.56 0-1.72-.94-2.86t-2.46-1.86q-1.52-.72-3.88-1.48-2.56-.76-4.3-1.68-1.74-.92-2.82-2.46-1.08-1.54-1.08-3.9 0-2.12 1.14-3.76 1.14-1.64 3.2-2.58 2.06-.94 4.74-.94 2.44 0 4.58.82t3.42 2.34q.6.68.6 1.16 0 .44-.4.82-.4.38-.88.38-.4 0-.68-.28-1.08-1.28-2.88-2.08-1.8-.8-3.76-.8-2.92 0-4.76 1.3-1.84 1.3-1.84 3.54 0 2.32 1.76 3.56 1.76 1.24 5.04 2.28 2.84.84 4.64 1.72 1.8.88 2.94 2.5t1.14 4.26q0 2.04-1.18 3.7-1.18 1.66-3.28 2.62-2.1.96-4.78.96zm30.92-20.84q.52 0 .86.36.34.36.34.88v18q0 .52-.34.86-.34.34-.86.34t-.86-.34q-.34-.34-.34-.86v-2.68q-1 1.8-3 3.04T305.76.4q-2.68 0-4.82-1.4t-3.36-3.84q-1.22-2.44-1.22-5.48 0-3.04 1.24-5.46t3.38-3.78q2.14-1.36 4.74-1.36 2.4 0 4.4 1.16 2 1.16 3 3.04v-2.48q0-.52.34-.88t.86-.36zM306-1.84q2.08 0 3.74-1.1 1.66-1.1 2.6-3.04.94-1.94.94-4.34 0-2.32-.94-4.24-.94-1.92-2.6-3.02-1.66-1.1-3.74-1.1t-3.74 1.08q-1.66 1.08-2.6 2.98-.94 1.9-.94 4.3t.92 4.34q.92 1.94 2.58 3.04 1.66 1.1 3.78 1.1zm25.36-19.08q.8 0 1.44.32.64.32.64.96 0 .56-.32.9-.32.34-.76.34-.2 0-.78-.2-.58-.2-1.1-.2-1.48 0-2.94 1.14t-2.4 2.94q-.94 1.8-.94 3.64v9.88q0 .52-.34.86-.34.34-.86.34t-.86-.34q-.34-.34-.34-.86v-17.92q0-.52.34-.86.34-.34.86-.34t.86.34q.34.34.34.86v3.52q.92-2.28 2.78-3.78 1.86-1.5 4.38-1.54zm21.96.48q.52 0 .86.36.34.36.34.88v18q0 .52-.34.86-.34.34-.86.34t-.86-.34q-.34-.34-.34-.86v-2.68q-1 1.8-3 3.04T344.76.4q-2.68 0-4.82-1.4t-3.36-3.84q-1.22-2.44-1.22-5.48 0-3.04 1.24-5.46t3.38-3.78q2.14-1.36 4.74-1.36 2.4 0 4.4 1.16 2 1.16 3 3.04v-2.48q0-.52.34-.88t.86-.36zM345-1.84q2.08 0 3.74-1.1 1.66-1.1 2.6-3.04.94-1.94.94-4.34 0-2.32-.94-4.24-.94-1.92-2.6-3.02-1.66-1.1-3.74-1.1t-3.74 1.08q-1.66 1.08-2.6 2.98-.94 1.9-.94 4.3t.92 4.34q.92 1.94 2.58 3.04 1.66 1.1 3.78 1.1zm25.12-18.76q3.6 0 5.36 2.26 1.76 2.26 1.76 5.82V-1.2q0 .52-.34.86-.34.34-.86.34t-.86-.34q-.34-.34-.34-.86v-11.32q0-2.6-1.24-4.22-1.24-1.62-3.88-1.62-1.68 0-3.18.8-1.5.8-2.42 2.14-.92 1.34-.92 2.9V-1.2q0 .52-.34.86-.34.34-.86.34t-.86-.34q-.34-.34-.34-.86v-27.2q0-.52.34-.86.34-.34.86-.34t.86.34q.34.34.34.86v11.72q1.08-1.72 3-2.82 1.92-1.1 3.92-1.1z" fill="#535353"/></svg><svg width="86.673" height="6.5" x="480.163" y="270.331" preserveAspectRatio="none"><rect width="86.673" height="6.5" rx="0%" ry="0%" fill="#f7cec1"/></svg></svg>